<?xml version="1.0" encoding="UTF-8"?>
<svg id="Warstwa_2" data-name="Warstwa 2" xmlns="http://www.w3.org/2000/svg" viewBox="0 0 67.8 66.67">
  <defs>
    <style>
      .cls-1 {
        fill: #141414;
        fill-rule: evenodd;
      }
    </style>
  </defs>
  <g id="Warstwa_12" data-name="Warstwa 12">
    <path class="cls-1" d="M33.93,0C15.17,0,0,15.28,0,34.18c0,15.11,9.72,27.9,23.2,32.42,1.69.34,2.3-.74,2.3-1.64,0-.79-.06-3.51-.06-6.34-9.44,2.04-11.4-4.07-11.4-4.07-1.52-3.96-3.76-4.98-3.76-4.98-3.09-2.09.22-2.09.22-2.09,3.43.23,5.22,3.51,5.22,3.51,3.03,5.21,7.92,3.73,9.89,2.83.28-2.21,1.18-3.73,2.13-4.58-7.53-.79-15.45-3.73-15.45-16.86,0-3.73,1.35-6.79,3.48-9.17-.34-.85-1.52-4.36.34-9.05,0,0,2.86-.91,9.32,3.51,2.77-.75,5.62-1.13,8.48-1.13,2.86,0,5.78.4,8.48,1.13,6.46-4.41,9.32-3.51,9.32-3.51,1.85,4.7.67,8.21.34,9.05,2.19,2.38,3.48,5.43,3.48,9.17,0,13.13-7.92,16.01-15.5,16.86,1.24,1.07,2.3,3.11,2.3,6.34,0,4.58-.06,8.26-.06,9.39,0,.91.62,1.98,2.3,1.64,13.48-4.53,23.2-17.32,23.2-32.42.06-18.9-15.17-34.18-33.87-34.18Z"/>
  </g>
</svg>