<?xml version="1.0" encoding="UTF-8"?>
<svg id="Warstwa_2" data-name="Warstwa 2" xmlns="http://www.w3.org/2000/svg" viewBox="0 0 66.67 66.65">
  <defs>
    <style>
      .cls-1 {
        fill: #141414;
      }
    </style>
  </defs>
  <g id="Warstwa_13" data-name="Warstwa 13">
    <g>
      <path class="cls-1" d="M41.53,33.32c0,4.53-3.67,8.21-8.2,8.21s-8.2-3.68-8.2-8.21,3.67-8.2,8.2-8.2,8.2,3.67,8.2,8.2Z"/>
      <path class="cls-1" d="M53.36,23.38c-.11-2.4-.51-3.7-.85-4.57-.44-1.15-.98-1.97-1.84-2.83-.86-.86-1.68-1.4-2.83-1.84-.86-.34-2.17-.74-4.57-.85-2.59-.12-3.37-.14-9.94-.14h-2.21c-4.59,0-5.47.03-7.74.13-2.4.11-3.7.51-4.57.85-1.14.45-1.96.98-2.83,1.84-.86.86-1.39,1.68-1.84,2.83-.33.87-.74,2.17-.85,4.57-.11,2.6-.14,3.37-.14,9.94s.03,7.35.14,9.95c.11,2.4.52,3.7.85,4.57.45,1.15.98,1.96,1.84,2.83.87.86,1.69,1.39,2.83,1.84.87.33,2.17.73,4.57.84,2.6.12,3.38.15,9.95.15s7.35-.03,9.94-.15c2.4-.1,3.71-.5,4.57-.84,1.15-.45,1.97-.98,2.83-1.84.86-.86,1.4-1.68,1.84-2.83.34-.87.74-2.17.85-4.57.12-2.59.14-3.37.14-9.94s-.02-7.35-.14-9.94ZM33.33,45.96c-6.98,0-12.64-5.66-12.64-12.64s5.66-12.63,12.64-12.63,12.64,5.65,12.64,12.63-5.66,12.64-12.64,12.64ZM46.47,23.14c-1.63,0-2.96-1.32-2.96-2.95s1.33-2.96,2.96-2.96,2.95,1.33,2.95,2.96-1.32,2.95-2.95,2.95Z"/>
      <path class="cls-1" d="M66.6,14.44c-.21-2.67-.67-4.47-1.6-6.38-.77-1.55-1.62-2.72-2.86-3.91-2.2-2.1-4.9-3.38-8.11-3.85-1.56-.22-1.87-.29-9.84-.3h-10.85C19.43,0,15.36.01,14.57.08c-2.86.23-4.64.68-6.57,1.65-1.49.74-2.67,1.6-3.83,2.8C2.05,6.73.77,9.43.31,12.64c-.23,1.56-.29,1.88-.31,9.84v10.83c0,13.9.02,17.97.08,18.76.24,2.78.67,4.53,1.59,6.44,1.77,3.66,5.14,6.41,9.1,7.43,1.38.36,2.9.55,4.84.64.83.04,9.24.07,17.66.07s16.84-.01,17.65-.06c2.25-.1,3.56-.28,5.01-.65,3.99-1.03,7.3-3.74,9.1-7.45.91-1.87,1.37-3.68,1.57-6.32.05-.57.07-9.73.07-18.87s-.02-18.28-.07-18.86ZM57.79,43.47c-.12,2.62-.54,4.41-1.14,5.97-.64,1.62-1.48,2.99-2.85,4.36-1.36,1.37-2.73,2.21-4.35,2.84-1.57.61-3.36,1.03-5.98,1.15-2.62.12-3.46.15-10.14.15s-7.53-.03-10.15-.15-4.41-.54-5.98-1.15c-1.61-.63-2.99-1.47-4.35-2.84-1.37-1.37-2.21-2.74-2.84-4.36-.61-1.56-1.02-3.35-1.15-5.97-.11-2.63-.14-3.46-.14-10.15s.03-7.52.14-10.14c.12-2.62.54-4.41,1.15-5.98.63-1.62,1.47-2.99,2.84-4.36,1.37-1.36,2.74-2.21,4.36-2.83,1.56-.61,3.35-1.03,5.97-1.15,2.63-.12,3.47-.15,10.15-.15s7.51.03,10.14.15c2.62.12,4.41.54,5.98,1.15,1.62.62,2.99,1.46,4.35,2.83,1.37,1.37,2.21,2.74,2.85,4.36.6,1.57,1.02,3.36,1.14,5.98s.15,3.46.15,10.14-.03,7.53-.15,10.15Z"/>
      <path class="cls-1" d="M41.53,33.32c0,4.53-3.67,8.21-8.2,8.21s-8.2-3.68-8.2-8.21,3.67-8.2,8.2-8.2,8.2,3.67,8.2,8.2Z"/>
      <path class="cls-1" d="M53.36,23.38c-.11-2.4-.51-3.7-.85-4.57-.44-1.15-.98-1.97-1.84-2.83-.86-.86-1.68-1.4-2.83-1.84-.86-.34-2.17-.74-4.57-.85-2.59-.12-3.37-.14-9.94-.14h-2.21c-4.59,0-5.47.03-7.74.13-2.4.11-3.7.51-4.57.85-1.14.45-1.96.98-2.83,1.84-.86.86-1.39,1.68-1.84,2.83-.33.87-.74,2.17-.85,4.57-.11,2.6-.14,3.37-.14,9.94s.03,7.35.14,9.95c.11,2.4.52,3.7.85,4.57.45,1.15.98,1.96,1.84,2.83.87.86,1.69,1.39,2.83,1.84.87.33,2.17.73,4.57.84,2.6.12,3.38.15,9.95.15s7.35-.03,9.94-.15c2.4-.1,3.71-.5,4.57-.84,1.15-.45,1.97-.98,2.83-1.84.86-.86,1.4-1.68,1.84-2.83.34-.87.74-2.17.85-4.57.12-2.59.14-3.37.14-9.94s-.02-7.35-.14-9.94ZM33.33,45.96c-6.98,0-12.64-5.66-12.64-12.64s5.66-12.63,12.64-12.63,12.64,5.65,12.64,12.63-5.66,12.64-12.64,12.64ZM46.47,23.14c-1.63,0-2.96-1.32-2.96-2.95s1.33-2.96,2.96-2.96,2.95,1.33,2.95,2.96-1.32,2.95-2.95,2.95Z"/>
      <path class="cls-1" d="M66.6,14.44c-.21-2.67-.67-4.47-1.6-6.38-.77-1.55-1.62-2.72-2.86-3.91-2.2-2.1-4.9-3.38-8.11-3.85-1.56-.22-1.87-.29-9.84-.3h-10.85C19.43,0,15.36.01,14.57.08c-2.86.23-4.64.68-6.57,1.65-1.49.74-2.67,1.6-3.83,2.8C2.05,6.73.77,9.43.31,12.64c-.23,1.56-.29,1.88-.31,9.84v10.83c0,13.9.02,17.97.08,18.76.24,2.78.67,4.53,1.59,6.44,1.77,3.66,5.14,6.41,9.1,7.43,1.38.36,2.9.55,4.84.64.83.04,9.24.07,17.66.07s16.84-.01,17.65-.06c2.25-.1,3.56-.28,5.01-.65,3.99-1.03,7.3-3.74,9.1-7.45.91-1.87,1.37-3.68,1.57-6.32.05-.57.07-9.73.07-18.87s-.02-18.28-.07-18.86ZM57.79,43.47c-.12,2.62-.54,4.41-1.14,5.97-.64,1.62-1.48,2.99-2.85,4.36-1.36,1.37-2.73,2.21-4.35,2.84-1.57.61-3.36,1.03-5.98,1.15-2.62.12-3.46.15-10.14.15s-7.53-.03-10.15-.15-4.41-.54-5.98-1.15c-1.61-.63-2.99-1.47-4.35-2.84-1.37-1.37-2.21-2.74-2.84-4.36-.61-1.56-1.02-3.35-1.15-5.97-.11-2.63-.14-3.46-.14-10.15s.03-7.52.14-10.14c.12-2.62.54-4.41,1.15-5.98.63-1.62,1.47-2.99,2.84-4.36,1.37-1.36,2.74-2.21,4.36-2.83,1.56-.61,3.35-1.03,5.97-1.15,2.63-.12,3.47-.15,10.15-.15s7.51.03,10.14.15c2.62.12,4.41.54,5.98,1.15,1.62.62,2.99,1.46,4.35,2.83,1.37,1.37,2.21,2.74,2.85,4.36.6,1.57,1.02,3.36,1.14,5.98s.15,3.46.15,10.14-.03,7.53-.15,10.15Z"/>
    </g>
  </g>
</svg>