<?xml version="1.0" encoding="UTF-8"?>
<svg id="Warstwa_2" data-name="Warstwa 2" xmlns="http://www.w3.org/2000/svg" viewBox="0 0 15.38 15">
  <defs>
    <style>
      .cls-1 {
        fill: #300;
      }

      .cls-2 {
        fill: #ff9a00;
      }
    </style>
  </defs>
  <g id="Warstwa_7" data-name="Warstwa 7">
    <g>
      <path class="cls-1" d="M2.72,0h9.94c1.51,0,2.72,1.22,2.72,2.72v9.55c0,1.51-1.22,2.72-2.72,2.72H2.72c-1.51,0-2.72-1.22-2.72-2.72V2.72C0,1.22,1.22,0,2.72,0Z"/>
      <path class="cls-2" d="M7.44,8.97h-2.38l-.49,1.51c-.01.06-.06.1-.12.09h-1.21c-.07,0-.09-.04-.07-.12l2.06-5.94c.02-.06.04-.13.06-.21.03-.13.04-.28.04-.42,0-.03.02-.06.05-.07h1.66c.05,0,.08.02.08.05l2.34,6.6c.02.07,0,.1-.06.1h-1.34s-.09-.03-.1-.07l-.53-1.53ZM5.42,7.67h1.63c-.04-.13-.09-.29-.15-.46-.06-.17-.12-.36-.17-.55-.06-.2-.12-.39-.19-.59s-.12-.38-.17-.57c-.05-.18-.1-.35-.14-.5h-.01c-.06.28-.13.55-.22.83-.1.31-.19.63-.29.95-.09.33-.19.63-.28.9ZM10.9,4.94c-.21,0-.42-.08-.57-.22-.15-.16-.22-.37-.22-.59,0-.22.08-.42.23-.57s.36-.22.57-.22c.25,0,.44.08.58.22.14.15.22.36.21.57,0,.22-.07.43-.22.59-.15.15-.37.24-.58.22h0ZM10.18,10.5v-4.94c0-.06.03-.09.08-.09h1.27c.06,0,.08.03.08.09v4.94c0,.07-.03.1-.08.1h-1.26c-.06,0-.1-.04-.1-.1Z"/>
    </g>
  </g>
</svg>