<?xml version="1.0" encoding="UTF-8"?>
<svg id="Warstwa_2" data-name="Warstwa 2" xmlns="http://www.w3.org/2000/svg" viewBox="0 0 15.38 15">
  <defs>
    <style>
      .cls-1 {
        fill: #f36;
      }

      .cls-2 {
        fill: #49021f;
      }
    </style>
  </defs>
  <g id="Warstwa_1-2" data-name="Warstwa 1">
    <g>
      <path class="cls-2" d="M2.72,0h9.94c1.51,0,2.72,1.22,2.72,2.72v9.55c0,1.51-1.22,2.72-2.72,2.72H2.72c-1.51,0-2.72-1.22-2.72-2.72V2.72C0,1.22,1.22,0,2.72,0Z"/>
      <g id="vlpa">
        <g id="vlpb">
          <path class="cls-1" d="M5.59,3.92v6.6c0,.07-.03.1-.09.1h-1.26c-.06,0-.08-.03-.08-.1V3.92c0-.06.03-.08.09-.08h1.25s.08.02.08.06c0,0,0,.01,0,.02Z"/>
          <path class="cls-1" d="M9.29,10.71c-.47,0-.95-.09-1.38-.29-.4-.19-.74-.49-.97-.87-.24-.39-.35-.88-.35-1.46,0-.47.12-.94.35-1.35.24-.42.6-.76,1.02-.99.45-.25.99-.37,1.62-.37.03,0,.08,0,.13,0s.12,0,.2.01v-2.03s.02-.07.06-.07h1.3s.06.02.06.04h0v6.12c0,.12,0,.24.01.38.01.13.02.26.03.37,0,.04-.02.08-.06.1-.33.14-.69.24-1.04.31-.32.06-.65.09-.99.09h0ZM9.92,9.42v-2.82c-.06-.01-.12-.03-.17-.03-.07,0-.14-.01-.21-.01-.25,0-.5.05-.72.17-.22.11-.4.27-.54.47s-.21.48-.21.81c0,.22.03.45.11.66.06.17.16.33.29.46.12.12.27.21.44.26.17.06.35.08.53.08.1,0,.19,0,.27-.01.08,0,.16,0,.23-.03h0Z"/>
        </g>
      </g>
    </g>
  </g>
</svg>