<?xml version="1.0" encoding="UTF-8"?>
<svg id="Warstwa_2" data-name="Warstwa 2" xmlns="http://www.w3.org/2000/svg" viewBox="0 0 15.38 15">
  <defs>
    <style>
      .cls-1 {
        fill: #001e36;
      }

      .cls-2 {
        fill: #31a8ff;
      }
    </style>
  </defs>
  <g id="Warstwa_3" data-name="Warstwa 3">
    <g id="Layer_2" data-name="Layer 2">
      <g id="Surfaces">
        <g id="Photo_Surface" data-name="Photo Surface">
          <g id="Outline_no_shadow" data-name="Outline no shadow">
            <path class="cls-1" d="M2.72,0h9.94c1.51,0,2.72,1.22,2.72,2.72v9.55c0,1.51-1.22,2.72-2.72,2.72H2.72c-1.51,0-2.72-1.22-2.72-2.72V2.72C0,1.22,1.22,0,2.72,0Z"/>
          </g>
        </g>
      </g>
      <g id="Outlined_Mnemonics_Logos" data-name="Outlined Mnemonics Logos">
        <g id="Ps">
          <path class="cls-2" d="M3.46,10.52V3.92s.02-.07.06-.07c.11,0,.21,0,.36,0,.15,0,.31,0,.49-.01.17,0,.36,0,.56-.01.2,0,.39,0,.58,0,.53,0,.96.06,1.32.2.32.11.62.29.86.53.21.21.37.46.47.73.1.27.15.54.15.83,0,.55-.13,1.01-.38,1.37s-.62.63-1.03.78c-.44.16-.92.22-1.44.22-.15,0-.26,0-.32,0s-.15,0-.28,0v2.06s-.03.08-.07.09h-1.24c-.05,0-.08-.03-.08-.08ZM4.86,5.09v2.15c.09,0,.17.01.25.01h.34c.25,0,.5-.04.74-.12.21-.06.38-.18.53-.34.13-.16.2-.38.2-.66,0-.2-.04-.4-.15-.57-.11-.17-.26-.29-.45-.37-.24-.1-.49-.13-.76-.13-.17,0-.31,0-.44,0-.13,0-.22,0-.26,0h0Z"/>
          <path class="cls-2" d="M12.31,6.85c-.19-.1-.4-.17-.62-.22-.24-.05-.47-.08-.72-.08-.13,0-.26.01-.38.04-.08.02-.15.06-.2.13-.03.05-.05.12-.05.17s.03.12.06.17c.06.07.13.13.22.17.15.08.3.15.46.21.35.12.68.28.99.47.21.13.38.31.51.53.1.21.15.43.15.66,0,.3-.08.6-.25.85-.18.26-.43.46-.72.57-.31.13-.7.21-1.16.21-.29,0-.58-.03-.87-.08-.22-.04-.45-.11-.65-.21-.04-.03-.08-.07-.07-.12v-1.12s0-.04.03-.06c.02-.01.04,0,.06,0,.25.15.51.25.79.31.24.06.5.1.76.1s.42-.03.53-.09c.1-.04.17-.15.17-.27,0-.09-.05-.17-.15-.26-.1-.08-.31-.18-.63-.3-.33-.12-.63-.27-.91-.46-.2-.14-.37-.33-.49-.54-.1-.21-.15-.43-.15-.65,0-.28.08-.54.22-.78.16-.26.4-.46.67-.59.3-.15.68-.22,1.13-.22.26,0,.53.02.79.06.19.03.38.08.55.15.03,0,.05.03.06.06,0,.03.01.05.01.08v1.04s-.01.05-.03.06c-.06.01-.09.01-.12,0Z"/>
        </g>
      </g>
    </g>
  </g>
</svg>