<?xml version="1.0" encoding="UTF-8"?>
<svg xmlns="http://www.w3.org/2000/svg" xmlns:xlink="http://www.w3.org/1999/xlink" viewBox="0 0 15.09 15">
  <defs>
    <style>
      .cls-1 {
        mask: url(#mask);
      }

      .cls-2 {
        fill: #fff;
      }

      .cls-2, .cls-3 {
        fill-rule: evenodd;
      }

      .cls-4 {
        fill: #1f9cf0;
      }

      .cls-5 {
        fill: #0065a9;
      }

      .cls-6 {
        isolation: isolate;
      }

      .cls-7 {
        mix-blend-mode: overlay;
        opacity: .25;
      }

      .cls-8 {
        fill: #007acc;
      }

      .cls-3 {
        fill: url(#Gradient_bez_nazwy_2);
      }
    </style>
    <mask id="mask" x="0" y="0" width="15.09" height="15" maskUnits="userSpaceOnUse">
      <g id="mask0">
        <path class="cls-2" d="M10.7,14.94c.24.09.51.09.75-.03l3.1-1.49c.33-.16.53-.49.53-.85V2.44c0-.36-.21-.69-.53-.85L11.45.09c-.31-.15-.68-.11-.96.09-.04.03-.08.06-.11.1l-5.94,5.42-2.59-1.96c-.24-.18-.58-.17-.8.04l-.83.76c-.27.25-.27.68,0,.93l2.24,2.05L.21,9.55c-.27.25-.27.68,0,.93l.83.76c.22.2.56.22.8.04l2.59-1.96,5.94,5.42c.09.09.2.16.32.21ZM11.32,4.08l-4.51,3.42,4.51,3.42v-6.85Z"/>
      </g>
    </mask>
    <linearGradient id="Gradient_bez_nazwy_2" data-name="Gradient bez nazwy 2" x1="7.54" y1="232.69" x2="7.54" y2="217.69" gradientTransform="translate(0 232.69) scale(1 -1)" gradientUnits="userSpaceOnUse">
      <stop offset="0" stop-color="#fff"/>
      <stop offset="1" stop-color="#fff" stop-opacity="0"/>
    </linearGradient>
  </defs>
  <g class="cls-6">
    <g id="Warstwa_2" data-name="Warstwa 2">
      <g id="Warstwa_9" data-name="Warstwa 9">
        <g class="cls-1">
          <g>
            <path class="cls-5" d="M14.55,1.59L11.45.09c-.36-.17-.79-.1-1.07.18L.2,9.55c-.27.25-.27.68,0,.93l.83.76c.22.2.56.22.8.04L14.09,1.98c.41-.31,1-.02,1,.5v-.04c0-.36-.21-.69-.53-.85Z"/>
            <path class="cls-8" d="M14.55,13.41l-3.11,1.5c-.36.17-.79.1-1.07-.18L.2,5.45c-.27-.25-.27-.68,0-.93l.83-.76c.22-.2.56-.22.8-.04l12.25,9.29c.41.31,1,.02,1-.5v.04c0,.36-.21.69-.53.85Z"/>
            <path class="cls-4" d="M11.45,14.91c-.36.17-.79.1-1.07-.18.35.35.94.1.94-.39V.67c0-.49-.59-.74-.94-.39.28-.28.71-.36,1.07-.18l3.11,1.49c.33.16.53.49.53.85v10.13c0,.36-.21.69-.53.85l-3.11,1.49Z"/>
            <g class="cls-7">
              <path class="cls-3" d="M10.69,14.94c.24.09.51.09.75-.03l3.1-1.49c.33-.16.53-.49.53-.85V2.44c0-.36-.21-.69-.53-.85L11.44.09c-.31-.15-.68-.11-.96.09-.04.03-.08.06-.11.1l-5.94,5.42-2.59-1.96c-.24-.18-.58-.17-.8.04l-.83.76c-.27.25-.27.68,0,.93l2.24,2.05L.2,9.55c-.27.25-.27.68,0,.93l.83.76c.22.2.56.22.8.04l2.59-1.96,5.94,5.42c.09.09.2.16.32.21ZM11.31,4.08l-4.51,3.42,4.51,3.42v-6.85Z"/>
            </g>
          </g>
        </g>
      </g>
    </g>
  </g>
</svg>